<svg xmlns="http://www.w3.org/2000/svg" xmlns:xlink="http://www.w3.org/1999/xlink" width="150px" height="75px" viewBox="0 0 150 75"><title>Graphic/Logo/Stacked/Blush</title><g id="Graphic/Logo/Stacked/Blush" stroke="none" stroke-width="1" fill="none" fill-rule="evenodd"><g id="Group-17" transform="translate(0.014466, 0.000063)"><path d="M40.4954798,38.9874924 C44.9470331,36.4065609 47.9479503,31.5891501 47.9479503,26.0833269 L40.4954798,26.0833269 L40.4954798,38.9874924 Z" id="Fill-1" fill="#F5777E"></path><polygon id="Fill-3" fill="#F5777E" points="2.46037325e-05 29.8095622 7.45249511 29.8095622 7.45249511 22.3570917 2.46037325e-05 22.3570917"></polygon><path d="M56.6644376,16.6354691 C53.55551,19.7443967 51.6408475,23.8665061 51.2732677,28.2425259 L51.2599817,28.4113075 L51.2599817,40.9882434 L58.7124522,40.9882434 L58.7124522,28.7220526 L58.7124522,14.86154 C57.9945153,15.3983935 57.3097935,15.9901132 56.6644376,16.6354691" id="Fill-5" fill="#F5777E"></path><path d="M39.2036854,71.2509325 C33.31429,71.2509325 28.5229592,66.4596017 28.5229592,60.5704523 C28.5229592,54.6810569 33.31429,49.8897261 39.2036854,49.8897261 C45.0930808,49.8897261 49.8841656,54.6810569 49.8841656,60.5704523 C49.8841656,66.4596017 45.0930808,71.2509325 39.2036854,71.2509325 M39.2036854,46.1634908 C31.2596324,46.1634908 24.796724,52.6263992 24.796724,60.5704523 C24.796724,68.5142593 31.2596324,74.9771677 39.2036854,74.9771677 C47.1474925,74.9771677 53.6104009,68.5142593 53.6104009,60.5704523 C53.6104009,52.6263992 47.1474925,46.1634908 39.2036854,46.1634908" id="Fill-6" fill="#F5777E"></path><polygon id="Fill-7" fill="#F5777E" points="17.7583589 59.2997433 3.72611224 59.2997433 3.72611224 46.1635646 0.000123018662 46.1635646 0.000123018662 74.999877 3.72611224 74.999877 3.72611224 63.0259786 17.7583589 63.0259786 17.7583589 74.999877 21.4845941 74.999877 21.4845941 46.1635646 17.7583589 46.1635646"></polygon><path d="M145.233298,61.0742875 C143.872219,59.712963 142.067289,58.8747139 140.151397,58.7138054 L135.947849,58.7071624 C134.934421,58.605549 133.982257,58.1543166 133.259891,57.431705 C132.422872,56.594686 131.961798,55.4821052 131.961798,54.2984197 C131.961798,53.1149801 132.422872,52.0023994 133.259891,51.1653804 C133.982257,50.4427688 134.934667,49.9915363 135.948095,49.8899229 L143.436487,49.8899229 L143.436487,46.1636876 L135.862966,46.1636876 L135.707224,46.1700846 C133.791086,46.330993 131.986156,47.1692422 130.624831,48.5305667 C129.084146,50.0712524 128.235563,52.1195131 128.235563,54.2984197 C128.235563,56.4773262 129.084146,58.5258329 130.624831,60.0665187 C131.986156,61.4275971 133.791086,62.2658463 135.707224,62.4267547 L139.91028,62.4333977 C140.923708,62.5352571 141.875872,62.9864896 142.598238,63.7091012 C143.435257,64.5461202 143.896085,65.658701 143.896085,66.8421405 C143.896085,68.025826 143.435257,69.1384068 142.598238,69.9754258 C141.875872,70.6980374 140.923708,71.1492699 139.910526,71.2508833 L127.775965,71.2508833 L127.775965,75 L140.073403,74.9771185 L140.151151,74.9704755 C141.947469,74.8199007 143.645865,74.0736695 144.97299,72.8592293 C145.061317,72.778283 145.148169,72.6951224 145.233298,72.6102395 C146.773983,71.0695538 147.62232,69.021047 147.62232,66.8421405 C147.62232,64.663234 146.773983,62.6149732 145.233298,61.0742875" id="Fill-8" fill="#F5777E"></path><path d="M85.4229283,46.1635892 C81.7370432,46.1635892 78.479263,48.0300284 76.5436874,50.8670847 C74.6081118,48.0300284 71.3505776,46.1635892 67.6646925,46.1635892 C61.7570903,46.1635892 56.9477988,50.9578725 56.9227029,56.8595698 L56.9227029,74.9999016 L60.6489382,74.9999016 L60.6489382,56.9058248 C60.6489382,53.0371339 63.7962476,49.8898245 67.6646925,49.8898245 C71.5333833,49.8898245 74.6806928,53.0371339 74.6806928,56.9058248 L74.6806928,68.6983937 L74.6806928,74.9999016 L78.406928,74.9999016 L78.406928,68.6983937 L78.406928,56.9058248 C78.406928,53.0371339 81.5544835,49.8898245 85.4229283,49.8898245 C89.2916192,49.8898245 92.4391747,53.0371339 92.4391747,56.9058248 L92.4391747,74.9999016 L96.1654099,74.9999016 L96.1654099,56.9058248 C96.1654099,50.9824762 91.3462769,46.1635892 85.4229283,46.1635892" id="Fill-9" fill="#F5777E"></path><path d="M105.122989,66.6788455 C102.210153,62.5154019 102.608242,56.7236834 106.323159,53.0090119 C110.037831,49.2940943 115.829303,48.896252 119.992747,51.8090878 L105.122989,66.6788455 Z M125.291899,51.7795634 C124.9162,51.2919174 124.509254,50.8207559 124.06245,50.3741982 C123.615892,49.9273944 123.144731,49.5204487 122.657085,49.1447497 C117.011759,44.7965321 108.858574,45.2037238 103.688099,50.3741982 C98.5176251,55.5446725 98.1104334,63.6978573 102.458897,69.3429376 C102.83435,69.8308297 103.241542,70.3017451 103.688099,70.7485489 C104.134903,71.1951066 104.605819,71.6022984 105.093711,71.9777513 C110.738791,76.326215 118.891976,75.9190232 124.06245,70.7485489 L121.427636,68.1137352 L121.427636,68.1137352 C117.712719,71.8286527 111.921246,72.2264951 107.757803,69.3136592 L122.627561,54.4439015 L125.291899,51.7795634 Z" id="Fill-10" fill="#F5777E"></path><path d="M33.0430831,33.5358221 C28.9337677,33.5358221 25.5906126,30.1926669 25.5906126,26.0833515 C25.5906126,21.9740362 28.9337677,18.6311271 33.0430831,18.6311271 C37.1523985,18.6311271 40.4955536,21.9740362 40.4955536,26.0833515 C40.4955536,30.1926669 37.1523985,33.5358221 33.0430831,33.5358221 M33.0430831,11.1786566 C24.8244524,11.1786566 18.1381421,17.8647208 18.1381421,26.0833515 C18.1381421,34.3019823 24.8244524,40.9882926 33.0430831,40.9882926 C35.7561367,40.9882926 38.3018848,40.259284 40.4955536,38.9875171 L40.4955536,40.9882926 L47.9480241,40.9882926 L47.9480241,26.0833515 C47.9480241,17.8647208 41.2617138,11.1786566 33.0430831,11.1786566" id="Fill-11" fill="#F5777E"></path><path d="M7.45247051,17.5434453 C7.70219839,14.9738315 8.84282742,12.557745 10.6738372,10.7264892 C12.7853295,8.6152429 15.5926153,7.45247051 18.5785243,7.45247051 L18.5785243,0 C13.6021734,0 8.92328163,1.93803599 5.4042098,5.45686178 C2.29528219,8.56603543 0.380619738,12.6881447 0.0132860154,17.0639185 L0,17.2327001 L0,22.3571655 L0,29.809636 L0,40.9883418 L7.45247051,40.9883418 L7.45247051,29.809636 L15.8359462,29.809636 L15.8359462,22.3571655 L7.45247051,22.3571655 L7.45247051,17.5434453 Z" id="Fill-12" fill="#F5777E"></path><path d="M58.7125507,14.8616631 L58.7125507,12.3771782 L51.2600801,12.3771782 L51.2600801,28.4111845 L51.2600801,40.9883664 L58.7125507,40.9883664 L58.7125507,28.7219296 C58.9622785,26.1520698 60.1026615,23.7362293 61.9341634,21.9049735 C64.0454096,19.7937272 66.8524494,18.6309548 69.8383584,18.6309548 L69.8383584,11.1784843 C65.7745599,11.1784843 61.9098057,12.4714105 58.7125507,14.8616631" id="Fill-13" fill="#F5777E"></path><path d="M40.4954798,38.9874924 C44.9470331,36.4065609 47.9479503,31.5891501 47.9479503,26.0833269 L40.4954798,26.0833269 L40.4954798,38.9874924 Z" id="Fill-14" fill="#F9ADB2"></path><polygon id="Fill-15" fill="#F9ADB2" points="2.46037325e-05 29.8095622 7.45249511 29.8095622 7.45249511 22.3570917 2.46037325e-05 22.3570917"></polygon><path d="M56.6644376,16.6354691 C53.55551,19.7443967 51.6408475,23.8665061 51.2732677,28.2425259 L51.2599817,28.4113075 L51.2599817,40.9882434 L58.7124522,40.9882434 L58.7124522,28.7220526 L58.7124522,14.86154 C57.9945153,15.3983935 57.3097935,15.9901132 56.6644376,16.6354691" id="Fill-16" fill="#F9ADB2"></path></g></g></svg>